{
  "accessors": [
    {
      "bufferView": 2,
      "componentType": 5126,
      "count": 1416,
      "max": [
        0.9991899728775024,
        0.9991899728775024,
        1.0
      ],
      "min": [
        -0.9991899728775024,
        -0.9991899728775024,
        -1.0
      ],
      "type": "VEC3"
    },
    {
      "bufferView": 2,
      "byteOffset": 16992,
      "componentType": 5126,
      "count": 1416,
      "max": [
        0.9991932511329651,
        0.9991932511329651,
        1.0
      ],
      "min": [
        -0.9991932511329651,
        -0.9991932511329651,
        -1.0
      ],
      "type": "VEC3"
    },
    {
      "bufferView": 1,
      "componentType": 5126,
      "count": 1416,
      "max": [
        1.2222199440002441,
        1.0
      ],
      "min": [
        0.02776999957859516,
        0.0
      ],
      "type": "VEC2"
    },
    {
      "bufferView": 0,
      "componentType": 5125,
      "count": 8208,
      "type": "SCALAR"
    },
    {
      "bufferView": 2,
      "byteOffset": 33984,
      "componentType": 5126,
      "count": 1416,
      "max": [
        0.9991899728775024,
        0.9991899728775024,
        1.0
      ],
      "min": [
        -0.9991899728775024,
        -0.9991899728775024,
        -1.0
      ],
      "type": "VEC3"
    },
    {
      "bufferView": 2,
      "byteOffset": 50976,
      "componentType": 5126,
      "count": 1416,
      "max": [
        0.9991932511329651,
        0.9991932511329651,
        1.0
      ],
      "min": [
        -0.9991932511329651,
        -0.9991932511329651,
        -1.0
      ],
      "type": "VEC3"
    },
    {
      "bufferView": 1,
      "byteOffset": 11328,
      "componentType": 5126,
      "count": 1416,
      "max": [
        1.2222199440002441,
        1.0
      ],
      "min": [
        0.02776999957859516,
        0.0
      ],
      "type": "VEC2"
    },
    {
      "bufferView": 0,
      "byteOffset": 32832,
      "componentType": 5125,
      "count": 8208,
      "type": "SCALAR"
    }
  ],
  "asset": {
    "extras": {
      "author": "Thomas Kole (https://sketchfab.com/ThomasKole)",
      "license": "CC-BY-4.0 (http://creativecommons.org/licenses/by/4.0/)",
      "source": "https://sketchfab.com/3d-models/planet-earth-alt-drag-to-change-lighting-47ad713999284fbdb9153a6e74feda86",
      "title": "Planet Earth (Alt-Drag to change Lighting)"
    },
    "generator": "Sketchfab-12.68.0",
    "version": "2.0"
  },
  "bufferViews": [
    {
      "buffer": 0,
      "byteLength": 65664,
      "name": "floatBufferViews",
      "target": 34963
    },
    {
      "buffer": 0,
      "byteLength": 22656,
      "byteOffset": 65664,
      "byteStride": 8,
      "name": "floatBufferViews",
      "target": 34962
    },
    {
      "buffer": 0,
      "byteLength": 67968,
      "byteOffset": 88320,
      "byteStride": 12,
      "name": "floatBufferViews",
      "target": 34962
    }
  ],
  "buffers": [
    {
      "byteLength": 156288,
      "uri": "scene.bin"
    }
  ],
  
  "images": [
    {
      "uri": "Material.005_diffuse.png"
    },
    {
      "uri": "Material.004_diffuse.png"
    },
    {
      "uri": "Material.004_specularGlossiness.png"
    },
    {
      "uri": "Material.004_emissive.jpeg"
    }
  ],
  "materials": [
    
    {
      "emissiveFactor": [
        0.13,
        0.13,
        0.13
      ],
      "emissiveTexture": {
        "index": 3
      
      },
      "name": "Material.004"
    }
  ],
  "meshes": [
    {
      "name": "Sphere",
      "primitives": [
        {
          "attributes": {
            "NORMAL": 1,
            "POSITION": 0,
            "TEXCOORD_0": 2
          },
          "indices": 3,
          "mode": 4
        }
      ]
    },
    {
      "name": "Sphere.001",
      "primitives": [
        {
          "attributes": {
            "NORMAL": 5,
            "POSITION": 4,
            "TEXCOORD_0": 6
          },
          "indices": 7,
          "material": 0,
          "mode": 4
        }
      ]
    }
  ],
  "nodes": [
    {
      "children": [
        1
      ],
      "matrix": [
        1.0,
        0.0,
        0.0,
        0.0,
        0.0,
        2.220446049250313e-16,
        -1.0,
        0.0,
        0.0,
        1.0,
        2.220446049250313e-16,
        0.0,
        0.0,
        0.0,
        0.0,
        1.0
      ],
      "name": "Sketchfab_model"
    },
    {
      "children": [
        2,
        4
      ],
      "name": "Root"
    },
    {
      "children": [
        3
      ],
      "name": "Sphere"
    },
    {
      "mesh": 0,
      "name": "Sphere"
    },
    {
      "children": [
        5
      ],
      "matrix": [
        1.0154299999999998,
        0.0,
        0.0,
        0.0,
        0.0,
        1.0154299999999998,
        0.0,
        0.0,
        0.0,
        0.0,
        1.0154299999999998,
        0.0,
        0.0,
        0.0,
        0.0,
        1.0
      ],
      "name": "Sphere.001"
    },
    {
      "mesh": 1,
      "name": "Sphere.001"
    }
  ],
  "samplers": [
    {
      "magFilter": 9729,
      "minFilter": 9987,
      "wrapS": 10497,
      "wrapT": 10497
    }
  ],
  "scene": 0,
  "scenes": [
    {
      "name": "Sketchfab_Scene",
      "nodes": [
        0
      ]
    }
  ],
  "textures": [
    {
      "sampler": 0,
      "source": 0
    },
    {
      "sampler": 0,
      "source": 1
    },
    {
      "sampler": 0,
      "source": 2
    },
    {
      "sampler": 0,
      "source": 3
    }
  ]
}
